<?xml version="1.0" encoding="UTF-8" standalone="no"?>
<svg
   xmlns:osb="http://www.openswatchbook.org/uri/2009/osb"
   xmlns:dc="http://purl.org/dc/elements/1.1/"
   xmlns:cc="http://creativecommons.org/ns#"
   xmlns:rdf="http://www.w3.org/1999/02/22-rdf-syntax-ns#"
   xmlns:svg="http://www.w3.org/2000/svg"
   xmlns="http://www.w3.org/2000/svg"
   xmlns:sodipodi="http://sodipodi.sourceforge.net/DTD/sodipodi-0.dtd"
   xmlns:inkscape="http://www.inkscape.org/namespaces/inkscape"
   width="1000"
   height="1000"
   id="svg4184"
   version="1.1"
   inkscape:version="0.91 r13725"
   sodipodi:docname="compass.svg"
   inkscape:export-filename="/home/wrede/repos/location-server/static/compass.svg.png"
   inkscape:export-xdpi="2.8800001"
   inkscape:export-ydpi="2.8800001">
  <metadata
     id="metadata4192">
    <rdf:RDF>
      <cc:Work
         rdf:about="">
        <dc:format>image/svg+xml</dc:format>
        <dc:type
           rdf:resource="http://purl.org/dc/dcmitype/StillImage" />
        <dc:title />
      </cc:Work>
    </rdf:RDF>
  </metadata>
  <defs
     id="defs4190">
    <linearGradient
       id="linearGradient4141"
       osb:paint="gradient">
      <stop
         style="stop-color:#000000;stop-opacity:1;"
         offset="0"
         id="stop4143" />
      <stop
         style="stop-color:#000000;stop-opacity:0;"
         offset="1"
         id="stop4145" />
    </linearGradient>
  </defs>
  <sodipodi:namedview
     pagecolor="#ffffff"
     bordercolor="#666666"
     borderopacity="1"
     objecttolerance="10"
     gridtolerance="10"
     guidetolerance="10"
     inkscape:pageopacity="0"
     inkscape:pageshadow="2"
     inkscape:window-width="1863"
     inkscape:window-height="1179"
     id="namedview4188"
     showgrid="false"
     inkscape:zoom="0.513"
     inkscape:cx="219.92812"
     inkscape:cy="506.76031"
     inkscape:window-x="57"
     inkscape:window-y="21"
     inkscape:window-maximized="1"
     inkscape:current-layer="svg4184" />
  <path
     d="M 707.3806,717.26758 413.77199,591.02947 c -5.31066,-2.70021 -9.61592,-7.00545 -12.33074,-12.33072 L 266.93727,307.53057 c -5.50567,-10.81625 -3.51048,-23.9426 4.98006,-32.6136 5.44517,-5.53587 12.78115,-8.46125 20.19217,-8.46125 4.15517,0 8.38532,0.9151 12.30045,2.82011 l 286.6498,119.05237 c 5.25018,2.52073 9.58562,6.61623 12.39109,11.71725 l 141.46469,278.36894 c 6.03037,10.87575 4.24492,24.40677 -4.36561,33.3479 -8.64083,8.94102 -22.1123,11.13126 -33.16845,5.50568 z M 355.47498,356.7201 l 81.5783,166.59326 82.38866,-103.12072 z m 212.69211,98.63525 -83.25848,104.21585 165.75222,65.40661 z m -68.1671,524.69455 c -265.12257,0 -480.049894,-214.92735 -480.049894,-480.04991 0,-265.13756 214.927324,-480.049894 480.049894,-480.049894 265.13757,0 480.04991,214.912334 480.04991,480.049894 0,265.12256 -214.91234,480.04991 -480.04991,480.04991 z m 0,-901.03848 c -231.60906,0 -420.043647,189.37969 -420.043647,420.9897 0,231.61002 188.434587,420.04369 420.043647,420.04369 231.60909,0 420.04369,-188.43461 420.04369,-420.04369 0,-231.60909 -188.4346,-420.9897 -420.04369,-420.9897 z"
     id="path4186"
     inkscape:connector-curvature="0"
     style="opacity:1;fill:#ffffff;fill-opacity:1;stroke-width:5;stroke-miterlimit:4;stroke-dasharray:none;stroke-opacity:1"
     inkscape:export-xdpi="3"
     inkscape:export-ydpi="3" />
</svg>
